<?xml version="1.0" encoding="utf-8"?>
<!-- Generator: Adobe Illustrator 23.1.1, SVG Export Plug-In . SVG Version: 6.00 Build 0)  -->
<svg version="1.1" id="Layer_1" xmlns="http://www.w3.org/2000/svg" xmlns:xlink="http://www.w3.org/1999/xlink" x="0px" y="0px"
	 viewBox="0 0 959.8 540" style="enable-background:new 0 0 959.8 540;" xml:space="preserve">
<style type="text/css">
	.st0{fill:#616365;}
	.st1{fill:#C11F3E;}
	.st2{fill:none;stroke:#C11F3E;stroke-width:2.1768;stroke-miterlimit:10;}
</style>
<g>
	<g>
		<path class="st0" d="M298.7,319.4c-0.8,0.7-1.6,1.3-2.4,2c-0.2-0.1-0.3-0.2-0.5-0.3c0.4-0.9,0.9-1.9,1.3-2.9
			c-0.5-0.1-0.9-0.2-1.4-0.2c0-0.8,0-1.6,0-2.4c1,0,1.9-0.1,2.9-0.1C298.7,316.7,298.7,318.1,298.7,319.4z"/>
		<g>
			<path class="st0" d="M241.4,202.2c1.7,3.3,3.5,6.6,5.2,9.8c2,3.7,4.1,7.3,6.2,11c3.2,5.8,6.5,11.7,9.7,17.5
				c0.9,1.6,1.9,3.3,2.7,4.9c0.2,0.3,0,0.9-0.1,1.2c-2.6,4.7-5.2,9.4-7.8,14.1c-1.4,2.5-2.8,5.1-4.2,7.6c-3.3,6-6.7,12.1-10,18.1
				c-0.5,0.9-1,1.9-1.5,2.8c-0.2,0.3-0.7,0.5-1,0.6c-0.2,0.1-0.5,0-0.8,0c-29.3,0-58.6,0-87.9,0c-3.9,0-7.7-3.1-7.9-7.2
				c-0.1-2-0.3-4-0.3-5.9c0-21.7,0-43.4,0-65.2c0-3.4,0.8-6.4,4-8.3c0.7-0.4,1.5-0.7,2.2-1.1C180.4,202.2,210.9,202.2,241.4,202.2z
				 M157.5,226.7c0,13.1,0,26.1,0,39c2.1,0,4.1,0,6.3,0c0-9.6,0-19.2,0-29.1c0.4,0.5,0.6,0.6,0.7,0.8c2,3.2,4,6.4,6,9.5
				c3.7,6,7.4,12,11.1,17.9c0.2,0.3,0.6,0.8,0.9,0.8c2.2,0.1,4.3,0,6.5,0c0-13.1,0-26.1,0-39c-2.1,0-4.2,0-6.3,0
				c0,9.6,0,19.2,0,29.1c-0.9-1.4-1.5-2.5-2.2-3.6c-5.1-8.2-10.2-16.5-15.4-24.7c-0.2-0.4-0.8-0.9-1.2-0.9
				C161.8,226.6,159.7,226.7,157.5,226.7z M241.2,265.7c0-13.1,0-26,0-39c-2.2,0-4.3,0-6.6,0c0,5.2,0,10.3,0,15.4
				c-6.1,0-12,0-18.1,0c0-5.2,0-10.3,0-15.4c-2.3,0-4.4,0-6.5,0c0,13,0,26,0,38.9c2.2,0,4.3,0,6.6,0c0-5.9,0-11.7,0-17.5
				c6.1,0,12.1,0,18.1,0c0,5.9,0,11.7,0,17.6C236.8,265.7,238.9,265.7,241.2,265.7z M196.2,226.7c0,13.1,0,26,0,38.9
				c2.2,0,4.4,0,6.5,0c0-13,0-26,0-38.9C200.5,226.7,198.4,226.7,196.2,226.7z"/>
			<path class="st1" d="M255.4,202.2c2.1,0.9,4.3,1.6,5.7,3.5c0.9,1.2,1.7,2.5,2.5,3.8c4.1,7.3,8.1,14.7,12.2,22.1
				c2.5,4.6,5.1,9.1,7.6,13.7c0.2,0.4,0.2,1.2-0.1,1.6c-2.7,5-5.5,9.9-8.2,14.9c-2,3.6-3.9,7.1-5.9,10.7c-2.4,4.3-4.6,8.6-7.1,12.7
				c-1.9,3.1-4.9,4.8-8.7,4.8c-2,0-4,0-6.3,0c0.9-1.8,1.8-3.4,2.6-5c1.7-3.1,3.4-6.2,5.2-9.2c3.6-6.4,7.2-12.9,10.8-19.3
				c1.8-3.2,3.6-6.5,5.4-9.7c0.2-0.3,0.1-1-0.1-1.4c-2-3.7-4.1-7.5-6.1-11.2c-1.7-3-3.4-6.1-5.1-9.1c-3.6-6.4-7.2-12.9-10.8-19.3
				c-0.6-1.1-1.2-2.3-1.8-3.4C249.9,202.2,252.6,202.2,255.4,202.2z"/>
			<path class="st0" d="M116.3,303.9c2.7-0.6,3.8,1.2,4.9,3.2c1.3,2.2,2.7,4.4,4.3,6.5c0-3.2,0-6.3,0-9.6c0.8,0,1.5,0,2.3,0
				c0,4.6,0,9.2,0,13.8c-2.4,0.5-2.6,0.3-3.9-1.8c-1.5-2.5-3.1-5-4.9-7.4c0,3.1,0,6.2,0,9.3c-1,0.1-1.9,0.1-2.7,0.1
				C116.3,313.4,116.3,308.6,116.3,303.9z"/>
			<path class="st0" d="M150.1,339.3c-0.9-0.7-2.1-1.3-2.7-2.2c-1.3-2.1-1.2-4.5-0.2-6.6c1.1-2.2,3.5-2.8,5.7-1.8
				c0.4,0.2,0.9,0.4,1.5,0.8c0-1.6,0-3.2,0-4.8c0.8,0,1.5,0,2.3,0c0,4.7,0,9.4,0,14.1c-1.8,0.3-1.9,0.3-2.4-0.6
				c-0.6,0.4-1.2,0.7-1.8,1.1C151.7,339.3,150.9,339.3,150.1,339.3z M151.8,337.2c1.5,0,2.8-1.5,2.8-3.5c0-1.9-1.2-3.5-2.8-3.5
				c-1.6,0-2.8,1.5-2.8,3.6C149,336,150,337.2,151.8,337.2z"/>
			<path class="st0" d="M207.4,339.3c-1.6-0.8-3-1.8-3.3-3.8c-0.3-1.9-0.4-3.8,0.9-5.5c1.7-2.2,4.4-2.1,6.9-0.5c0-0.9,0-1.6,0-2.3
				c0-0.8,0-1.5,0-2.4c0.8,0,1.5,0,2.2,0c0,4.7,0,9.4,0,14.1c-1.8,0.3-1.9,0.3-2.5-0.6c-0.6,0.4-1.2,0.7-1.8,1.1
				C209,339.3,208.2,339.3,207.4,339.3z M211.8,333.7c0-0.2,0-0.5,0-0.7c-0.2-1.2-1.3-2.5-2.3-2.7c-1.2-0.2-2.2,0.3-2.7,1.4
				c-0.7,1.4-0.9,2.9,0,4.2c0.4,0.6,1.3,1.2,2,1.3C210.7,337.4,211.8,336,211.8,333.7z"/>
			<path class="st0" d="M127.5,339.3c-0.3-0.2-0.5-0.4-0.8-0.5c-1.5-0.7-1.6-2-1.5-3.4c0.1-1.2,0.8-1.8,1.9-2.1
				c1.3-0.3,2.6-0.5,3.9-0.8c0.4-0.1,0.9-0.7,0.9-1c0-0.4-0.6-1.1-0.9-1.1c-0.9,0-2.2,0-2.6,0.5c-0.9,1.2-1.9,0.9-3,0.9
				c0-1.4,0.6-2.3,1.7-2.9c1.9-1,3.8-0.9,5.6-0.1c0.7,0.3,1.3,1.5,1.4,2.4c0.2,1.6,0,3.2,0.1,4.8c0,0.5,0.4,1,0.7,1.5
				c0.2,0,0.4-0.1,0.6-0.1c-0.2,0.6-0.4,1.2-0.6,1.9C132.4,339.3,129.9,339.3,127.5,339.3z M131.7,334.1c-1.1,0.2-2.3,0.3-3.3,0.7
				c-0.4,0.1-0.8,0.8-0.9,1.3c0,0.3,0.5,0.9,0.9,1.1C130.6,337.9,132.2,336.4,131.7,334.1z"/>
			<path class="st0" d="M284,339.3c-1.4-0.8-3-1.6-3.3-3.5c-0.5-2.7-0.3-5.5,2.2-6.9c2.8-1.5,6.6-0.3,7.3,3.5
				c0.3,1.9,0.2,1.9-1.7,1.9c-1.8,0-3.6,0-5.5,0c-0.4,1.4,0.5,2.3,1.4,2.7c0.8,0.4,2.2,0.7,2.8-0.4c0.8-1.3,1.8-1,2.9-1
				c-0.2,1.5-1,2.6-2.4,3.1c-0.3,0.1-0.6,0.4-1,0.6C285.8,339.3,284.9,339.3,284,339.3z M287.8,332.8c-0.6-2-1.4-2.7-2.8-2.5
				c-1.2,0.2-2.1,1.2-2,2.5C284.6,332.8,286.1,332.8,287.8,332.8z"/>
			<path class="st0" d="M185,339.3c-1.6-0.9-3.2-1.7-3.6-3.8c-0.7-4.4,0.8-7.1,5-7.2c3.8-0.2,5.8,2.9,5.2,6.5
				c-0.3,2.3-1.8,3.7-3.9,4.5C186.8,339.3,185.9,339.3,185,339.3z M189.2,333.7c0-2.6-1.8-4.2-3.8-3.1c-0.8,0.5-1.4,1.7-1.7,2.7
				c-0.6,2.1,1.2,4.1,3.2,3.9C188.3,337.1,189.2,335.8,189.2,333.7z"/>
			<path class="st0" d="M196.5,339.3c-0.9-0.6-2-1.1-2.7-1.9c-2-2.2-1.6-7.2,1.5-8.6c3.3-1.5,7.7,0.1,7.7,4.7c0,2.9-1.4,4.6-3.8,5.8
				C198.3,339.3,197.4,339.3,196.5,339.3z M194.9,333.7c0.1,0,0.1,0,0.2,0.1c0,0.3,0,0.5,0,0.8c0.2,1.6,1,2.5,2.2,2.7
				c1.5,0.2,2.5-0.3,3-1.8c0.3-0.9,0.4-2.2,0-3.1c-0.3-0.8-1.2-1.6-2.1-2c-1.1-0.4-2,0.3-2.6,1.2C195.2,332.2,195.1,333,194.9,333.7
				z"/>
			<path class="st0" d="M239.8,339.3c-0.4-0.2-0.7-0.3-1.1-0.5c-1.3-0.6-2-1.6-2.1-3.1c1.2-0.1,2.2-0.6,2.9,1c0.4,0.9,3.1,0.8,3.7,0
				c0.4-0.6-0.1-1.5-1.1-1.7c-1-0.3-2.1-0.5-3.1-0.8c-1.7-0.5-2.2-1.3-2.1-3.2c0-1,1.2-2.2,2.4-2.3c1.3-0.1,2.7,0,4,0.2
				c1.3,0.3,1.9,1.3,2.2,2.7c-1.3,0.1-2.3,0.3-3.3-0.8c-0.4-0.5-1.9-0.4-2.6,0c-0.8,0.4-0.1,1.1,0.4,1.4c1,0.3,2,0.5,3,0.8
				c1.8,0.5,3,1.1,2.8,3.3c-0.1,1.4-0.9,2.3-2.5,2.8c-0.3,0.1-0.5,0.2-0.8,0.4C241.6,339.3,240.7,339.3,239.8,339.3z"/>
			<path class="st0" d="M266.3,339.3c-2.1-0.9-2.6-2.5-2.4-4.6c0.1-2,0-4,0-6.1c0.8,0,1.5,0,2.3,0c0,2.1,0,4.1,0,6.2
				c0,1.8,0.5,2.4,2,2.4c1.4,0,2.2-0.8,2.3-2.4c0-2,0-4.1,0-6.2c0.8,0,1.5,0,2.2,0c0,3.4,0,6.9,0,10.5c-0.9-0.1-1.7-0.3-2.5-0.4
				c0-0.1,0-0.3,0-0.4c-0.5,0.4-1,0.7-1.4,1.1C267.9,339.3,267.1,339.3,266.3,339.3z"/>
			<path class="st0" d="M173.8,331.3c1.8,1,2.6,2.8,2.1,4.7c-0.3,1.6-1.9,2.9-4.1,3c-2.5,0.1-5.1,0-7.7,0c0-4.8,0-9.5,0-14.3
				c2.7,0,5.4-0.2,8,0.1C175.4,325.1,176.7,328.7,173.8,331.3z M166.7,337.1c1.7-0.1,3.3-0.2,4.9-0.4c1.1-0.1,1.7-0.8,1.7-1.9
				c0-1.1-0.4-1.9-1.5-2c-1.7-0.2-3.4-0.3-5.1-0.4C166.7,334,166.7,335.4,166.7,337.1z M166.8,330.7c1.5,0,2.8,0.1,4.2,0
				c1.1-0.1,1.9-0.8,1.8-1.9c-0.1-0.6-0.8-1.5-1.4-1.6c-1.5-0.2-3-0.1-4.6-0.1C166.8,328.3,166.8,329.4,166.8,330.7z"/>
			<path class="st0" d="M291.3,317c-2.2,1.6-4.8,1.4-6.3-0.3c-1.5-1.7-1.7-5.7,0-7.6c1.7-1.9,4.1-2.1,5.7-0.9c1.3-0.2,2.2-0.3,3-0.4
				c0,3.8,0.1,7.5,0,11.1c0,1.7-1.2,2.8-2.9,3.1c-2.1,0.4-4.1,0.7-5.8-1.1c-0.4-0.4-0.6-1-1-1.7c1.4-0.1,2.3-0.4,3.3,0.7
				c0.5,0.5,2,0.4,3,0.2C291.7,319.6,291.5,318.3,291.3,317z M291.4,312.7c0.2-2.5-1.4-3.4-2.7-3.2c-1.2,0.2-2.2,1.2-2.3,2.4
				c-0.2,2.2,0.5,3.8,1.8,4.3c0.4,0.1,0.8,0.1,1.2,0C290.8,315.8,291.4,314.8,291.4,312.7z"/>
			<path class="st0" d="M205.3,318c-0.8,0-1.6,0-2.5,0c0-2,0-4,0-6.1c-2.2,0-4.2,0-6.4,0c0,2,0,4,0,6.1c-0.9,0-1.7,0-2.6,0
				c0-4.6,0-9.2,0-13.8c0.8,0,1.5,0,2.5,0c0,1.7,0,3.4,0,5.2c2.2,0,4.2,0,6.4,0c0-1.7,0-3.4,0-5.2c0.9,0,1.7,0,2.6,0
				C205.3,308.6,205.3,313.2,205.3,318z"/>
			<path class="st0" d="M230.7,307.8c0.1,0.4,0.1,0.8,0.2,1.3c1.3-1.7,2.9-2,4.9-1.3c0-1.1,0-2,0-3c0.8,0,1.5,0,2.3,0
				c0,0.9,0,1.8,0,2.8c0.8,0.1,1.4,0.1,2.1,0.1c0,0.5,0,1,0,1.6c-0.6,0-1.2,0.1-1.9,0.1c0,2.2,0,4.3,0,6.6c0.7,0,1.3,0.1,1.8,0.1
				c0.4,1.9,0.2,2.1-1.7,2c-1.9-0.1-2.7-0.9-2.7-2.7c0-1.9,0-3.9,0-5.8c-3.6-0.1-4.8,0.9-4.8,3.8c0,1.1,0,2.2,0,3.3
				c0,0.4,0,0.7,0,1.2c-0.8,0-1.5,0-2.2,0c0-3.3,0-6.7,0-10.1C229.4,307.8,230,307.8,230.7,307.8z"/>
			<path class="st0" d="M139.9,318.3c-1.2-0.2-2.4,0.6-3.1-0.5c-1.6,0.2-3,0.4-4.4,0.5c-1.5,0-2.9-1.3-2.8-2.7
				c0.1-1.6,0.6-2.7,2.4-3.1c1-0.3,2.1-0.3,3.1-0.6c0.6-0.2,1.4-0.7,1.5-1.1c0.1-1-0.7-1.1-1.6-1.2c-1.1-0.1-1.9,0.2-2.6,1
				c-0.4,0.4-1.4,0.3-2.1,0.5c-0.2-1.9,0.8-3.2,3-3.4c1.2-0.2,2.6,0.1,3.8,0.4c1.3,0.3,1.8,1.3,1.8,2.7c0,1.6,0,3.2,0,4.8
				c0,0.3,0,0.8,0.2,1C139.9,317.2,140,317.2,139.9,318.3z M136.4,313.2c-0.9,0.1-1.8,0.2-2.7,0.4c-0.9,0.2-1.8,0.6-1.5,1.6
				c0.2,0.5,1.1,1.1,1.7,1.2C135.6,316.6,136.7,315.2,136.4,313.2z"/>
			<path class="st0" d="M227.9,318.5c-1.4-0.2-2.4-0.4-4-0.7c-1.3,0.6-3.1,0.9-5,0.1c-1.6-0.7-1.4-2.1-1.3-3.4
				c0.1-1.1,0.9-1.8,2-2.1c1.1-0.2,2.2-0.4,3.3-0.6c0.7-0.1,1.5-0.2,1.5-1.2c-0.1-0.9-0.7-1.1-1.6-1.1c-1,0-1.9,0.1-2.6,1
				c-0.3,0.4-1.5,0.3-2.3,0.4c0.1-1.8,0.9-2.8,2.4-3.2c1.9-0.5,3.8-0.6,5.4,0.6c0.5,0.4,0.9,1.2,1,1.9c0.1,1.4,0,2.9,0.1,4.4
				c0,0.7-0.4,1.7,0.9,2C227.7,316.7,227.7,317.6,227.9,318.5z M224.2,313.3c-0.9,0.1-1.9,0.1-2.8,0.4c-0.6,0.2-1,0.9-1.5,1.4
				c0.5,0.5,1,1.2,1.6,1.3C223.5,316.9,224.6,315.4,224.2,313.3z"/>
			<path class="st0" d="M173.3,311c0.2-1.3,0.5-2.3,1.6-2.8c1.8-0.9,3.6-0.9,5.5-0.2c1.3,0.5,1.8,1.4,1.8,2.7c0,1.4,0,2.7,0,4.1
				c0,0.7-0.3,1.6,0.9,1.9c0.2,0.1,0.2,1,0.3,1.8c-1.3-0.2-2.5-0.4-3.6-0.5c0-0.2,0-0.3,0-0.5c-1.7,1.1-3.6,1.2-5.4,0.5
				c-1.6-0.6-1.5-2-1.4-3.3c0.1-1.2,0.9-1.9,2.1-2.2c1.1-0.2,2.2-0.3,3.3-0.6c0.5-0.2,1.3-0.7,1.4-1.1c0.1-0.9-0.6-1.1-1.4-1.2
				c-1.1,0-2,0-2.7,1.1C175.4,311.1,174.2,310.9,173.3,311z M179.8,313.3c-1,0.1-2,0.1-2.8,0.5c-0.6,0.2-1,0.9-1.6,1.4
				c0.5,0.5,1,1.2,1.6,1.3C178.8,316.9,180,315.5,179.8,313.3z"/>
			<path class="st0" d="M216.7,313.6c-2.4,0-4.8,0-7.3,0c0,1.4,0.7,2.4,1.9,2.8c1.2,0.4,2-0.2,2.9-1c0.6-0.5,1.5-0.5,2.2-0.8
				c0.2,1.8-1.6,3.6-3.4,3.6c-4.2,0.1-6.3-1.7-6.1-5.5c0.2-3.6,2.2-5.6,5.8-5.3C215.3,307.8,217.4,310.7,216.7,313.6z M214.2,311.8
				c-0.3-1.7-1-2.3-2.4-2.2c-1.4,0-2,0.7-2.2,2.2C211.1,311.8,212.6,311.8,214.2,311.8z"/>
			<path class="st0" d="M155.9,318.3c-3.1,0.5-5.2-2.4-5.1-5.2c0.1-3.4,1.7-5.6,5.3-5.6c3.3,0,5.2,2,5.2,5.6
				C161.2,316.3,159.2,318.3,155.9,318.3z M156.2,309.6c-1.8,0-3.1,1.2-3.1,3.3c-0.1,1.8,1.3,3.6,2.8,3.7c1.5,0,2.9-1.6,3-3.4
				C159,311.3,157.7,309.6,156.2,309.6z"/>
			<path class="st0" d="M136.1,328.6c0.8,0,1.4,0,2.2,0c0.1,0.4,0.1,0.8,0.2,1.3c1.6-1.5,3.4-2,5.3-0.9c0.6,0.4,1.3,1.3,1.4,1.9
				c0.2,2.7,0.1,5.3,0.1,8.1c-0.8,0-1.4,0-2.3,0c0-2.2,0-4.4,0-6.6c0-1.5-1.2-2.5-2.4-2c-1.1,0.5-1.8,1.3-1.8,2.6c0,1.9,0,3.9,0,5.9
				c-0.9,0-1.7,0-2.5,0C136.1,335.5,136.1,332.1,136.1,328.6z"/>
			<path class="st0" d="M165,318c-0.9,0-1.7,0-2.5,0c0-3.4,0-6.7,0-10.1c0.9,0.2,2-0.8,2.4,1c1.6-1.4,3.3-1.9,5.2-0.7
				c0.7,0.4,1.4,1.3,1.4,2.1c0.2,2.6,0.1,5.1,0.1,7.8c-0.8,0-1.4,0-2.3,0c0-2.1,0.1-4.2,0-6.3c0-0.7-0.5-1.8-1-1.9
				c-0.7-0.2-1.8,0.1-2.5,0.5c-0.4,0.3-0.6,1.2-0.6,1.8C165,314,165,315.9,165,318z"/>
			<path class="st0" d="M271.6,318.1c-0.9-0.1-1.7-0.3-2.7-0.4c-1,0.2-2.1,0.5-3.4,0.6c-1.6,0.1-3-1.1-3-2.6c-0.1-2.6,0-5.2,0-7.8
				c0.8,0,1.5,0,2.3,0c0,2,0,4,0,5.9c0,1.7,0.7,2.7,1.9,2.7c1.5,0,2.3-0.9,2.3-2.7c0-1.9,0-3.9,0-5.9c0.9,0,1.6,0,2.5,0
				C271.6,311.2,271.6,314.6,271.6,318.1z"/>
			<path class="st0" d="M228.6,338.9c-0.9,0-1.5,0-2.3,0c0-3.5,0-6.8,0-10.4c0.9,0.1,2.1-0.8,2.4,1c1.2-1,2.4-1.5,3.9-1.1
				c1.6,0.4,2.6,1.3,2.7,3c0.1,2.1,0,4.2,0,6.3c0,0.4,0,0.7,0,1.2c-0.8,0-1.5,0-2.3,0c0-1.7,0-3.4,0-5.1c0-0.8,0-1.7-0.3-2.4
				c-0.2-0.5-0.9-1-1.5-1.2c-1.1-0.2-1.9,0.4-2.4,1.4c-0.2,0.5-0.3,1.1-0.3,1.7C228.5,335.2,228.6,337,228.6,338.9z"/>
			<path class="st0" d="M273.5,317.9c0-3.4,0-6.7,0-10.2c0.9,0.3,2.2-0.9,2.4,1c1.3-1.3,2.7-1.6,4.4-1.1c1.4,0.4,2.2,1.4,2.3,2.8
				c0.1,2.4,0,4.9,0,7.4c-0.8,0-1.5,0-2.3,0c0-1.8,0-3.5,0-5.3c0-0.5-0.1-1-0.2-1.5c-0.2-0.8-0.4-1.6-1.6-1.6
				c-1.3,0-2.1,0.5-2.4,1.7c-0.2,1-0.3,2-0.3,3.1c0,1.2,0,2.4,0,3.7C274.9,317.9,274.3,317.9,273.5,317.9z"/>
			<path class="st0" d="M251.9,317.9c0-4.6,0-9.2,0-13.9c0.8,0,1.6,0,2.5,0c0,3.9,0,7.8,0,11.8c2.4,0,4.7,0,7,0c0,0.8,0,1.4,0,2
				C258.3,317.9,255.2,317.9,251.9,317.9z"/>
			<path class="st0" d="M258.1,330.6c-0.6-0.1-1-0.1-1.5-0.1c0-0.6,0-1.2,0-1.9c0.4-0.1,0.9-0.1,1.5-0.2c0-0.9,0-1.8,0-2.8
				c0.9,0,1.7,0,2.6,0c0,0.9,0,1.8,0,2.8c0.7,0.1,1.2,0.1,1.9,0.2c0,0.6,0,1.2,0,1.9c-0.5,0.1-1.1,0.1-1.8,0.2
				c0,1.9-0.1,3.8,0.1,5.7c0,0.4,1,0.8,1.5,1.2c0.1-0.1,0.2-0.2,0.3-0.3c0,0.5,0,1.1,0,1.7c-0.9,0-1.7,0.1-2.6,0
				c-1.3-0.1-1.8-0.9-1.9-2.8C258.1,334.4,258.1,332.5,258.1,330.6z"/>
			<path class="st0" d="M273.8,328.6c0.5,0,0.9-0.1,1.5-0.1c0-0.9,0-1.9,0-2.9c0.8,0,1.5,0,2.3,0c0,0.9,0,1.8,0,2.8
				c0.8,0.1,1.4,0.1,2.1,0.1c0,0.6,0,1.2,0,1.9c-0.6,0-1.3,0.1-2.1,0.2c0,1.8-0.1,3.6,0,5.3c0.1,1,0.5,1.2,2.1,1.3c0,0.5,0,1,0,1.7
				c-0.9,0-1.8,0.1-2.6,0c-1.2-0.1-1.8-1-1.8-2.5c0-1.9,0-3.9,0-5.8c-0.6-0.1-1-0.1-1.6-0.1C273.8,329.8,273.8,329.2,273.8,328.6z"
				/>
			<path class="st0" d="M252,337.3c0,0.5,0,1,0,1.7c-0.9,0-1.9,0.1-2.8,0c-1-0.2-1.4-0.9-1.4-2c0-2.1,0-4.2,0-6.3
				c-0.7-0.1-1.2-0.1-1.8-0.2c0-0.6,0-1.2,0-1.9c0.6-0.1,1.1-0.1,1.8-0.2c0-0.9,0-1.8,0-2.8c0.8,0,1.5,0,2.4,0c0,0.9,0,1.8,0,2.8
				c0.7,0,1.2,0.1,1.8,0.1c0,0.7,0,1.3,0,1.9c-0.6,0-1.1,0.1-1.8,0.1c0,1.9-0.1,3.7,0.1,5.5c0.1,0.5,1,0.9,1.5,1.4
				C251.8,337.5,251.9,337.4,252,337.3z"/>
			<path class="st0" d="M141.4,304.8c0.8,0,1.5,0,2.3,0c0,0.9,0.1,1.9,0.1,2.9c0.6,0,1.1,0.1,1.7,0.1c0,0.5,0,1.1,0,1.6
				c-0.5,0-1.1,0.1-1.8,0.2c0,1.9-0.1,3.9,0.1,5.9c0,0.4,1,0.7,1.7,1.1c-0.1,0.4,0.7,1.5-0.8,1.6c-2.1,0.2-3.2-0.5-3.3-2
				c-0.1-1.7,0-3.4,0-5c0-0.5,0-1,0-1.6c-0.7-0.1-1.2-0.1-1.8-0.2c0-0.5,0-1,0-1.6c0.5-0.1,1.1-0.1,1.8-0.2
				C141.4,306.7,141.4,305.8,141.4,304.8z"/>
			<path class="st0" d="M223.9,338.9c-0.8,0-1.6,0-2.4,0c0-4.7,0-9.4,0-14.2c0.8,0,1.6,0,2.4,0C223.9,329.5,223.9,334.2,223.9,338.9
				z"/>
			<path class="st0" d="M179.7,338.9c-0.7,0-1.4,0-2.2,0c0-4.7,0-9.4,0-14.2c0.7,0,1.4,0,2.2,0C179.7,329.5,179.7,334.2,179.7,338.9
				z"/>
			<path class="st0" d="M184.3,317.9c0-4.7,0-9.2,0-13.9c0.7,0,1.4,0,2.2,0c0,4.6,0,9.2,0,13.9C185.8,317.9,185.1,317.9,184.3,317.9
				z"/>
			<path class="st0" d="M255.5,328.6c0,3.4,0,6.9,0,10.3c-0.7,0-1.4,0-2.2,0c0-3.4,0-6.8,0-10.3C254,328.6,254.7,328.6,255.5,328.6z
				"/>
			<path class="st0" d="M147,317.9c0-3.4,0-6.7,0-10c0.7,0,1.4,0,2.2,0c0,3.3,0,6.6,0,10C148.5,317.9,147.8,317.9,147,317.9z"/>
			<path class="st0" d="M241.3,321c0.5-0.9,1-1.8,1.6-2.8c-0.5-0.1-0.9-0.2-1.3-0.2c0-0.8,0-1.5,0-2.4c0.9,0,1.7,0,2.6,0
				C244.8,318.8,244.3,320.7,241.3,321z"/>
			<path class="st0" d="M255.5,324.8c0,0.7,0,1.4,0,2.1c-0.7,0-1.4,0-2.2,0c0-0.7,0-1.4,0-2.1C254,324.8,254.7,324.8,255.5,324.8z"
				/>
			<path class="st0" d="M149.1,306.3c-0.7,0-1.4,0-2.1,0c0-0.7,0-1.4,0-2.2c0.7,0,1.4,0,2.1,0C149.1,304.8,149.1,305.5,149.1,306.3z
				"/>
		</g>
	</g>
	<path class="st0" d="M508.8,222.2c0,3.8-0.7,7.1-2.1,9.8c-1.4,2.8-3.3,5-5.6,6.8c-2.3,1.8-4.9,3.1-7.8,3.9
		c-2.9,0.8-5.8,1.3-8.8,1.3h-16.1v-43.3h15.7c3.1,0,6.1,0.4,9.1,1.1c3,0.7,5.6,1.9,8,3.5s4.2,3.9,5.6,6.6
		C508.1,214.7,508.8,218.2,508.8,222.2 M498,222.2c0-2.4-0.4-4.5-1.2-6.1c-0.8-1.6-1.9-2.9-3.2-3.9c-1.3-1-2.8-1.6-4.5-2.1
		c-1.7-0.4-3.4-0.6-5.2-0.6h-5.2V235h5c1.9,0,3.7-0.2,5.4-0.6c1.7-0.4,3.3-1.1,4.6-2.1c1.3-1,2.4-2.3,3.2-3.9
		C497.6,226.7,498,224.7,498,222.2"/>
	<path class="st0" d="M514.8,217.7c1.8-1.7,3.9-3,6.3-3.9c2.4-0.9,4.8-1.3,7.3-1.3c2.6,0,4.7,0.3,6.5,0.9c1.8,0.6,3.2,1.6,4.3,2.9
		c1.1,1.3,1.9,3,2.4,5c0.5,2,0.8,4.4,0.8,7.2V244h-9.2v-3.2H533c-0.8,1.3-1.9,2.2-3.5,2.9c-1.6,0.7-3.3,1-5.1,1
		c-1.2,0-2.5-0.2-3.8-0.5s-2.5-0.9-3.6-1.6c-1.1-0.7-2-1.7-2.7-2.9c-0.7-1.2-1-2.7-1-4.5c0-2.2,0.6-4,1.8-5.3
		c1.2-1.3,2.8-2.4,4.6-3.1c1.9-0.7,4-1.2,6.3-1.5c2.3-0.2,4.6-0.4,6.8-0.4v-0.5c0-1.5-0.5-2.6-1.6-3.3c-1.1-0.7-2.4-1.1-3.9-1.1
		c-1.4,0-2.8,0.3-4.1,0.9c-1.3,0.6-2.5,1.3-3.4,2.2L514.8,217.7z M533.2,230.8h-1.3c-1.1,0-2.2,0.1-3.3,0.2c-1.1,0.1-2.1,0.3-3,0.6
		c-0.9,0.3-1.6,0.7-2.2,1.3c-0.6,0.6-0.9,1.3-0.9,2.2c0,0.6,0.1,1.1,0.4,1.5c0.3,0.4,0.6,0.7,1,1c0.4,0.2,0.9,0.4,1.4,0.5
		c0.5,0.1,1,0.2,1.5,0.2c2,0,3.6-0.6,4.7-1.7c1.1-1.1,1.6-2.6,1.6-4.6V230.8z"/>
	<path class="st0" d="M560.1,221v11.7c0,1.4,0.3,2.5,0.8,3.2c0.5,0.7,1.5,1.1,3,1.1c0.5,0,1,0,1.6-0.1c0.6-0.1,1-0.2,1.4-0.4
		l0.1,7.3c-0.7,0.2-1.6,0.5-2.6,0.6c-1.1,0.2-2.1,0.3-3.2,0.3c-2,0-3.8-0.3-5.1-0.8c-1.4-0.5-2.5-1.2-3.3-2.2
		c-0.8-1-1.4-2.1-1.8-3.4c-0.4-1.3-0.5-2.8-0.5-4.4V221h-4.9v-7.5h4.8v-8h9.8v8h7.2v7.5H560.1z"/>
	<path class="st0" d="M571.5,217.7c1.8-1.7,3.9-3,6.3-3.9c2.4-0.9,4.8-1.3,7.3-1.3c2.6,0,4.7,0.3,6.5,0.9c1.8,0.6,3.2,1.6,4.3,2.9
		c1.1,1.3,1.9,3,2.4,5c0.5,2,0.8,4.4,0.8,7.2V244H590v-3.2h-0.2c-0.8,1.3-1.9,2.2-3.5,2.9c-1.6,0.7-3.3,1-5.1,1
		c-1.2,0-2.5-0.2-3.8-0.5s-2.5-0.9-3.6-1.6c-1.1-0.7-2-1.7-2.7-2.9c-0.7-1.2-1-2.7-1-4.5c0-2.2,0.6-4,1.8-5.3
		c1.2-1.3,2.8-2.4,4.6-3.1c1.9-0.7,4-1.2,6.3-1.5c2.3-0.2,4.6-0.4,6.8-0.4v-0.5c0-1.5-0.5-2.6-1.6-3.3c-1.1-0.7-2.4-1.1-3.9-1.1
		c-1.4,0-2.8,0.3-4.1,0.9c-1.3,0.6-2.5,1.3-3.4,2.2L571.5,217.7z M590,230.8h-1.3c-1.1,0-2.2,0.1-3.3,0.2c-1.1,0.1-2.1,0.3-3,0.6
		c-0.9,0.3-1.6,0.7-2.2,1.3c-0.6,0.6-0.9,1.3-0.9,2.2c0,0.6,0.1,1.1,0.4,1.5c0.3,0.4,0.6,0.7,1,1c0.4,0.2,0.9,0.4,1.4,0.5
		c0.5,0.1,1,0.2,1.5,0.2c2,0,3.6-0.6,4.7-1.7c1.1-1.1,1.6-2.6,1.6-4.6V230.8z"/>
	<path class="st0" d="M379.3,200.7h14.9c1.6,0,3.3,0.2,4.9,0.6c1.6,0.4,3.1,1,4.4,1.8c1.3,0.9,2.3,2,3.1,3.4
		c0.8,1.4,1.2,3.1,1.2,5.2c0,2.4-0.7,4.4-2.1,6.1c-1.4,1.6-3.2,2.8-5.5,3.4v0.1c1.4,0.2,2.7,0.5,3.9,1.1c1.2,0.6,2.2,1.3,3.1,2.2
		c0.9,0.9,1.5,2,2,3.2c0.5,1.2,0.7,2.6,0.7,4.1c0,2.1-0.4,3.9-1.3,5.4c-0.9,1.6-2,2.8-3.5,3.8c-1.5,1-3.2,1.8-5.2,2.3
		c-2,0.5-4.1,0.8-6.3,0.8h-14.3V200.7z M385.3,219h7.9c1.1,0,2.2-0.1,3.3-0.4c1-0.3,1.9-0.7,2.7-1.2c0.8-0.6,1.4-1.2,1.8-2.1
		c0.5-0.8,0.7-1.8,0.7-3c0-2.3-0.9-4-2.6-5c-1.7-1-4-1.5-6.9-1.5h-6.9V219z M385.3,238.9h7.6c1.3,0,2.5-0.1,3.8-0.3
		c1.3-0.2,2.4-0.6,3.5-1.2c1-0.6,1.9-1.3,2.5-2.3c0.6-1,0.9-2.2,0.9-3.6c0-2.6-0.9-4.4-2.6-5.6c-1.8-1.1-4.3-1.7-7.6-1.7h-8.1V238.9
		z"/>
	<path class="st0" d="M425,204.6c0,1.1-0.4,1.9-1.1,2.6c-0.7,0.7-1.6,1-2.7,1s-1.9-0.4-2.7-1.1c-0.7-0.7-1.1-1.6-1.1-2.6
		c0-1.1,0.4-1.9,1.1-2.7c0.7-0.7,1.6-1.1,2.7-1.1s2,0.4,2.7,1.1C424.6,202.6,425,203.5,425,204.6 M424.1,244h-5.8v-29h5.8V244z"/>
	<path class="st0" d="M463.4,229.5c0,2.2-0.4,4.3-1.2,6.2c-0.8,1.9-1.9,3.5-3.3,4.9c-1.4,1.4-3.1,2.4-5,3.2c-1.9,0.8-4,1.1-6.2,1.1
		c-2.2,0-4.3-0.4-6.2-1.1c-1.9-0.8-3.6-1.8-5-3.2c-1.4-1.4-2.5-3-3.3-4.9c-0.8-1.9-1.2-3.9-1.2-6.2c0-2.2,0.4-4.3,1.2-6.1
		c0.8-1.9,1.9-3.5,3.3-4.8c1.4-1.3,3-2.4,5-3.2c1.9-0.8,4-1.1,6.2-1.1c2.2,0,4.3,0.4,6.2,1.1c1.9,0.8,3.6,1.8,5,3.2
		c1.4,1.3,2.5,2.9,3.3,4.8C463.1,225.2,463.4,227.2,463.4,229.5 M457.5,229.5c0-1.4-0.2-2.7-0.6-4c-0.4-1.3-1.1-2.4-1.9-3.3
		c-0.8-1-1.8-1.7-3-2.3c-1.2-0.6-2.6-0.9-4.1-0.9c-1.6,0-2.9,0.3-4.1,0.9c-1.2,0.6-2.2,1.3-3,2.3c-0.8,1-1.4,2.1-1.9,3.3
		c-0.4,1.3-0.6,2.6-0.6,4c0,1.4,0.2,2.7,0.6,4c0.4,1.3,1.1,2.4,1.9,3.4c0.8,1,1.8,1.7,3,2.3s2.6,0.9,4.1,0.9c1.6,0,2.9-0.3,4.1-0.9
		c1.2-0.6,2.2-1.3,3-2.3c0.8-1,1.4-2.1,1.9-3.4C457.2,232.2,457.5,230.9,457.5,229.5"/>
	<line class="st2" x1="339" y1="200.7" x2="339" y2="338.4"/>
	<g>
		<polygon class="st1" points="478.6,302.1 488.4,302.1 483.5,286.8 		"/>
		<path class="st1" d="M379.3,253.8v84.6h429l34.5-42.3l-34.5-42.3H379.3z M433.7,323.2c-13.4,0-23.8-10.2-23.8-26.5v-0.9
			c0-16.1,10.5-26.7,24.3-26.7c8.2,0,13.8,3.2,18.1,8.2l-8.7,9.2c-2.2-2.7-5.1-4.9-9.2-4.9c-6.1,0-10.7,5.5-10.7,14.4v0.3
			c0,9.3,4.6,14.5,10.7,14.5c4.5,0,7.2-2.4,9.6-5.2l8.5,8.7C448.3,319.4,442.5,323.2,433.7,323.2 M494.8,322.3l-3.1-9.4h-16.4
			l-3,9.4h-13.8l18.4-52.6h13.6l18.5,52.6H494.8z M549.2,282.1h-12.9v40.2h-13.5v-40.2h-12.9V270h39.3V282.1z M586.6,322.3l-3.1-9.4
			h-16.4l-3,9.4h-13.8l18.4-52.6h13.6l18.5,52.6H586.6z M643.6,322.3h-34V270h13.5v40.2h20.6V322.3z M671.8,302.5v19.7h-13.5v-19.6
			L641.5,270h14.9l8.7,18.9L674,270h14.7L671.8,302.5z M731.5,306.6c0,10.2-7.8,16.4-19.1,16.4c-7.8,0-15.2-2.4-21.3-7.7l7.2-9.8
			c4.3,3.5,9.1,5.9,14.2,5.9c3.6,0,5.5-1.6,5.5-3.8v-0.1c0-2.1-1.6-3.4-7.7-5.5c-9.9-3.4-16.8-7-16.8-16.4v-0.2
			c0-9.5,7.2-16.1,18.7-16.1c7,0,13.2,1.9,18.7,6.4l-6.8,10c-3.6-2.8-7.9-4.8-12.2-4.8c-3.1,0-4.8,1.5-4.8,3.4v0.1
			c0,2.3,1.6,3.5,8.3,6c9.9,3.2,16.1,7.2,16.1,16.1V306.6z M777.6,282.1h-12.9v40.2h-13.5v-40.2h-12.9V270h39.3V282.1z"/>
		<polygon class="st1" points="570.4,302.1 580.2,302.1 575.3,286.8 		"/>
		<path class="st1" d="M379.3,253.8v84.6h429l34.5-42.3l-34.5-42.3H379.3z M433.7,323.2c-13.4,0-23.8-10.2-23.8-26.5v-0.9
			c0-16.1,10.5-26.7,24.3-26.7c8.2,0,13.8,3.2,18.1,8.2l-8.7,9.2c-2.2-2.7-5.1-4.9-9.2-4.9c-6.1,0-10.7,5.5-10.7,14.4v0.3
			c0,9.3,4.6,14.5,10.7,14.5c4.5,0,7.2-2.4,9.6-5.2l8.5,8.7C448.3,319.4,442.5,323.2,433.7,323.2 M494.8,322.3l-3.1-9.4h-16.4
			l-3,9.4h-13.8l18.4-52.6h13.6l18.5,52.6H494.8z M549.2,282.1h-12.9v40.2h-13.5v-40.2h-12.9V270h39.3V282.1z M586.6,322.3l-3.1-9.4
			h-16.4l-3,9.4h-13.8l18.4-52.6h13.6l18.5,52.6H586.6z M643.6,322.3h-34V270h13.5v40.2h20.6V322.3z M671.8,302.5v19.7h-13.5v-19.6
			L641.5,270h14.9l8.7,18.9L674,270h14.7L671.8,302.5z M731.5,306.6c0,10.2-7.8,16.4-19.1,16.4c-7.8,0-15.2-2.4-21.3-7.7l7.2-9.8
			c4.3,3.5,9.1,5.9,14.2,5.9c3.6,0,5.5-1.6,5.5-3.8v-0.1c0-2.1-1.6-3.4-7.7-5.5c-9.9-3.4-16.8-7-16.8-16.4v-0.2
			c0-9.5,7.2-16.1,18.7-16.1c7,0,13.2,1.9,18.7,6.4l-6.8,10c-3.6-2.8-7.9-4.8-12.2-4.8c-3.1,0-4.8,1.5-4.8,3.4v0.1
			c0,2.3,1.6,3.5,8.3,6c9.9,3.2,16.1,7.2,16.1,16.1V306.6z M777.6,282.1h-12.9v40.2h-13.5v-40.2h-12.9V270h39.3V282.1z"/>
	</g>
	<path class="st0" d="M508.8,222.2c0,3.8-0.7,7.1-2.1,9.8c-1.4,2.8-3.3,5-5.6,6.8c-2.3,1.8-4.9,3.1-7.8,3.9
		c-2.9,0.8-5.8,1.3-8.8,1.3h-16.1v-43.3h15.7c3.1,0,6.1,0.4,9.1,1.1c3,0.7,5.6,1.9,8,3.5s4.2,3.9,5.6,6.6
		C508.1,214.7,508.8,218.2,508.8,222.2 M498,222.2c0-2.4-0.4-4.5-1.2-6.1c-0.8-1.6-1.9-2.9-3.2-3.9c-1.3-1-2.8-1.6-4.5-2.1
		c-1.7-0.4-3.4-0.6-5.2-0.6h-5.2V235h5c1.9,0,3.7-0.2,5.4-0.6c1.7-0.4,3.3-1.1,4.6-2.1c1.3-1,2.4-2.3,3.2-3.9
		C497.6,226.7,498,224.7,498,222.2"/>
	<path class="st0" d="M514.8,217.7c1.8-1.7,3.9-3,6.3-3.9c2.4-0.9,4.8-1.3,7.3-1.3c2.6,0,4.7,0.3,6.5,0.9c1.8,0.6,3.2,1.6,4.3,2.9
		c1.1,1.3,1.9,3,2.4,5c0.5,2,0.8,4.4,0.8,7.2V244h-9.2v-3.2H533c-0.8,1.3-1.9,2.2-3.5,2.9c-1.6,0.7-3.3,1-5.1,1
		c-1.2,0-2.5-0.2-3.8-0.5s-2.5-0.9-3.6-1.6c-1.1-0.7-2-1.7-2.7-2.9c-0.7-1.2-1-2.7-1-4.5c0-2.2,0.6-4,1.8-5.3
		c1.2-1.3,2.8-2.4,4.6-3.1c1.9-0.7,4-1.2,6.3-1.5c2.3-0.2,4.6-0.4,6.8-0.4v-0.5c0-1.5-0.5-2.6-1.6-3.3c-1.1-0.7-2.4-1.1-3.9-1.1
		c-1.4,0-2.8,0.3-4.1,0.9c-1.3,0.6-2.5,1.3-3.4,2.2L514.8,217.7z M533.2,230.8h-1.3c-1.1,0-2.2,0.1-3.3,0.2c-1.1,0.1-2.1,0.3-3,0.6
		c-0.9,0.3-1.6,0.7-2.2,1.3c-0.6,0.6-0.9,1.3-0.9,2.2c0,0.6,0.1,1.1,0.4,1.5c0.3,0.4,0.6,0.7,1,1c0.4,0.2,0.9,0.4,1.4,0.5
		c0.5,0.1,1,0.2,1.5,0.2c2,0,3.6-0.6,4.7-1.7c1.1-1.1,1.6-2.6,1.6-4.6V230.8z"/>
	<path class="st0" d="M560.1,221v11.7c0,1.4,0.3,2.5,0.8,3.2c0.5,0.7,1.5,1.1,3,1.1c0.5,0,1,0,1.6-0.1c0.6-0.1,1-0.2,1.4-0.4
		l0.1,7.3c-0.7,0.2-1.6,0.5-2.6,0.6c-1.1,0.2-2.1,0.3-3.2,0.3c-2,0-3.8-0.3-5.1-0.8c-1.4-0.5-2.5-1.2-3.3-2.2
		c-0.8-1-1.4-2.1-1.8-3.4c-0.4-1.3-0.5-2.8-0.5-4.4V221h-4.9v-7.5h4.8v-8h9.8v8h7.2v7.5H560.1z"/>
	<path class="st0" d="M571.5,217.7c1.8-1.7,3.9-3,6.3-3.9c2.4-0.9,4.8-1.3,7.3-1.3c2.6,0,4.7,0.3,6.5,0.9c1.8,0.6,3.2,1.6,4.3,2.9
		c1.1,1.3,1.9,3,2.4,5c0.5,2,0.8,4.4,0.8,7.2V244H590v-3.2h-0.2c-0.8,1.3-1.9,2.2-3.5,2.9c-1.6,0.7-3.3,1-5.1,1
		c-1.2,0-2.5-0.2-3.8-0.5s-2.5-0.9-3.6-1.6c-1.1-0.7-2-1.7-2.7-2.9c-0.7-1.2-1-2.7-1-4.5c0-2.2,0.6-4,1.8-5.3
		c1.2-1.3,2.8-2.4,4.6-3.1c1.9-0.7,4-1.2,6.3-1.5c2.3-0.2,4.6-0.4,6.8-0.4v-0.5c0-1.5-0.5-2.6-1.6-3.3c-1.1-0.7-2.4-1.1-3.9-1.1
		c-1.4,0-2.8,0.3-4.1,0.9c-1.3,0.6-2.5,1.3-3.4,2.2L571.5,217.7z M590,230.8h-1.3c-1.1,0-2.2,0.1-3.3,0.2c-1.1,0.1-2.1,0.3-3,0.6
		c-0.9,0.3-1.6,0.7-2.2,1.3c-0.6,0.6-0.9,1.3-0.9,2.2c0,0.6,0.1,1.1,0.4,1.5c0.3,0.4,0.6,0.7,1,1c0.4,0.2,0.9,0.4,1.4,0.5
		c0.5,0.1,1,0.2,1.5,0.2c2,0,3.6-0.6,4.7-1.7c1.1-1.1,1.6-2.6,1.6-4.6V230.8z"/>
	<path class="st0" d="M379.3,200.7h14.9c1.6,0,3.3,0.2,4.9,0.6c1.6,0.4,3.1,1,4.4,1.8c1.3,0.9,2.3,2,3.1,3.4
		c0.8,1.4,1.2,3.1,1.2,5.2c0,2.4-0.7,4.4-2.1,6.1c-1.4,1.6-3.2,2.8-5.5,3.4v0.1c1.4,0.2,2.7,0.5,3.9,1.1c1.2,0.6,2.2,1.3,3.1,2.2
		c0.9,0.9,1.5,2,2,3.2c0.5,1.2,0.7,2.6,0.7,4.1c0,2.1-0.4,3.9-1.3,5.4c-0.9,1.6-2,2.8-3.5,3.8c-1.5,1-3.2,1.8-5.2,2.3
		c-2,0.5-4.1,0.8-6.3,0.8h-14.3V200.7z M385.3,219h7.9c1.1,0,2.2-0.1,3.3-0.4c1-0.3,1.9-0.7,2.7-1.2c0.8-0.6,1.4-1.2,1.8-2.1
		c0.5-0.8,0.7-1.8,0.7-3c0-2.3-0.9-4-2.6-5c-1.7-1-4-1.5-6.9-1.5h-6.9V219z M385.3,238.9h7.6c1.3,0,2.5-0.1,3.8-0.3
		c1.3-0.2,2.4-0.6,3.5-1.2c1-0.6,1.9-1.3,2.5-2.3c0.6-1,0.9-2.2,0.9-3.6c0-2.6-0.9-4.4-2.6-5.6c-1.8-1.1-4.3-1.7-7.6-1.7h-8.1V238.9
		z"/>
	<path class="st0" d="M425,204.6c0,1.1-0.4,1.9-1.1,2.6c-0.7,0.7-1.6,1-2.7,1s-1.9-0.4-2.7-1.1c-0.7-0.7-1.1-1.6-1.1-2.6
		c0-1.1,0.4-1.9,1.1-2.7c0.7-0.7,1.6-1.1,2.7-1.1s2,0.4,2.7,1.1C424.6,202.6,425,203.5,425,204.6 M424.1,244h-5.8v-29h5.8V244z"/>
	<path class="st0" d="M463.4,229.5c0,2.2-0.4,4.3-1.2,6.2c-0.8,1.9-1.9,3.5-3.3,4.9c-1.4,1.4-3.1,2.4-5,3.2c-1.9,0.8-4,1.1-6.2,1.1
		c-2.2,0-4.3-0.4-6.2-1.1c-1.9-0.8-3.6-1.8-5-3.2c-1.4-1.4-2.5-3-3.3-4.9c-0.8-1.9-1.2-3.9-1.2-6.2c0-2.2,0.4-4.3,1.2-6.1
		c0.8-1.9,1.9-3.5,3.3-4.8c1.4-1.3,3-2.4,5-3.2c1.9-0.8,4-1.1,6.2-1.1c2.2,0,4.3,0.4,6.2,1.1c1.9,0.8,3.6,1.8,5,3.2
		c1.4,1.3,2.5,2.9,3.3,4.8C463.1,225.2,463.4,227.2,463.4,229.5 M457.5,229.5c0-1.4-0.2-2.7-0.6-4c-0.4-1.3-1.1-2.4-1.9-3.3
		c-0.8-1-1.8-1.7-3-2.3c-1.2-0.6-2.6-0.9-4.1-0.9c-1.6,0-2.9,0.3-4.1,0.9c-1.2,0.6-2.2,1.3-3,2.3c-0.8,1-1.4,2.1-1.9,3.3
		c-0.4,1.3-0.6,2.6-0.6,4c0,1.4,0.2,2.7,0.6,4c0.4,1.3,1.1,2.4,1.9,3.4c0.8,1,1.8,1.7,3,2.3s2.6,0.9,4.1,0.9c1.6,0,2.9-0.3,4.1-0.9
		c1.2-0.6,2.2-1.3,3-2.3c0.8-1,1.4-2.1,1.9-3.4C457.2,232.2,457.5,230.9,457.5,229.5"/>
	<g>
		<polygon class="st1" points="478.6,302.1 488.4,302.1 483.5,286.8 		"/>
		<path class="st1" d="M379.3,253.8v84.6h429l34.5-42.3l-34.5-42.3H379.3z M433.7,323.2c-13.4,0-23.8-10.2-23.8-26.5v-0.9
			c0-16.1,10.5-26.7,24.3-26.7c8.2,0,13.8,3.2,18.1,8.2l-8.7,9.2c-2.2-2.7-5.1-4.9-9.2-4.9c-6.1,0-10.7,5.5-10.7,14.4v0.3
			c0,9.3,4.6,14.5,10.7,14.5c4.5,0,7.2-2.4,9.6-5.2l8.5,8.7C448.3,319.4,442.5,323.2,433.7,323.2 M494.8,322.3l-3.1-9.4h-16.4
			l-3,9.4h-13.8l18.4-52.6h13.6l18.5,52.6H494.8z M549.2,282.1h-12.9v40.2h-13.5v-40.2h-12.9V270h39.3V282.1z M586.6,322.3l-3.1-9.4
			h-16.4l-3,9.4h-13.8l18.4-52.6h13.6l18.5,52.6H586.6z M643.6,322.3h-34V270h13.5v40.2h20.6V322.3z M671.8,302.5v19.7h-13.5v-19.6
			L641.5,270h14.9l8.7,18.9L674,270h14.7L671.8,302.5z M731.5,306.6c0,10.2-7.8,16.4-19.1,16.4c-7.8,0-15.2-2.4-21.3-7.7l7.2-9.8
			c4.3,3.5,9.1,5.9,14.2,5.9c3.6,0,5.5-1.6,5.5-3.8v-0.1c0-2.1-1.6-3.4-7.7-5.5c-9.9-3.4-16.8-7-16.8-16.4v-0.2
			c0-9.5,7.2-16.1,18.7-16.1c7,0,13.2,1.9,18.7,6.4l-6.8,10c-3.6-2.8-7.9-4.8-12.2-4.8c-3.1,0-4.8,1.5-4.8,3.4v0.1
			c0,2.3,1.6,3.5,8.3,6c9.9,3.2,16.1,7.2,16.1,16.1V306.6z M777.6,282.1h-12.9v40.2h-13.5v-40.2h-12.9V270h39.3V282.1z"/>
		<polygon class="st1" points="570.4,302.1 580.2,302.1 575.3,286.8 		"/>
		<path class="st1" d="M379.3,253.8v84.6h429l34.5-42.3l-34.5-42.3H379.3z M433.7,323.2c-13.4,0-23.8-10.2-23.8-26.5v-0.9
			c0-16.1,10.5-26.7,24.3-26.7c8.2,0,13.8,3.2,18.1,8.2l-8.7,9.2c-2.2-2.7-5.1-4.9-9.2-4.9c-6.1,0-10.7,5.5-10.7,14.4v0.3
			c0,9.3,4.6,14.5,10.7,14.5c4.5,0,7.2-2.4,9.6-5.2l8.5,8.7C448.3,319.4,442.5,323.2,433.7,323.2 M494.8,322.3l-3.1-9.4h-16.4
			l-3,9.4h-13.8l18.4-52.6h13.6l18.5,52.6H494.8z M549.2,282.1h-12.9v40.2h-13.5v-40.2h-12.9V270h39.3V282.1z M586.6,322.3l-3.1-9.4
			h-16.4l-3,9.4h-13.8l18.4-52.6h13.6l18.5,52.6H586.6z M643.6,322.3h-34V270h13.5v40.2h20.6V322.3z M671.8,302.5v19.7h-13.5v-19.6
			L641.5,270h14.9l8.7,18.9L674,270h14.7L671.8,302.5z M731.5,306.6c0,10.2-7.8,16.4-19.1,16.4c-7.8,0-15.2-2.4-21.3-7.7l7.2-9.8
			c4.3,3.5,9.1,5.9,14.2,5.9c3.6,0,5.5-1.6,5.5-3.8v-0.1c0-2.1-1.6-3.4-7.7-5.5c-9.9-3.4-16.8-7-16.8-16.4v-0.2
			c0-9.5,7.2-16.1,18.7-16.1c7,0,13.2,1.9,18.7,6.4l-6.8,10c-3.6-2.8-7.9-4.8-12.2-4.8c-3.1,0-4.8,1.5-4.8,3.4v0.1
			c0,2.3,1.6,3.5,8.3,6c9.9,3.2,16.1,7.2,16.1,16.1V306.6z M777.6,282.1h-12.9v40.2h-13.5v-40.2h-12.9V270h39.3V282.1z"/>
	</g>
</g>
</svg>
